<svg width="100" height="100" viewBox="0 0 100 100" fill="none" xmlns="http://www.w3.org/2000/svg">
<g clip-path="url(#clip0)">
<path d="M67.5 1.29999C52.5 1.29999 41.2 13.1 41.2 28.8C41.2 37.6 45.7 45.8 51.8 51.3C47.3 60.1 38.3 66 31.2 66C21.5 66.1 9 53.6 9 40.3C9 26.9 18.6 16.8 31.3 16.8C33.7 16.8 36 17.2 38.2 17.8C39.2 18.1 40.3 17.6 40.6 16.6C41 15.5 40.4 14.4 39.4 14C36.8 13.2 34.1 12.8 31.3 12.8C16.3 12.8 5 24.6 5 40.3C5 53.6 15.5 65.7 25.7 69.1V73.8C25.7 76 27.5 77.8 29.7 77.8H30.4C30.9 78.7 31.5 79.7 32.3 80.7C33 81.7 34.3 83.5 34.4 84.2C34 85 32.1 86.4 31 87.2C28.8 88.8 27.1 90 27.1 91.7C27.1 93.4 28.9 95.6 32.4 98.3C32.8 98.6 33.2 98.7 33.6 98.7C34.3 98.7 35 98.3 35.4 97.6C35.8 96.7 35.5 95.7 34.8 95.1C33.4 94 32 92.7 31.4 91.9C31.9 91.5 32.7 90.9 33.3 90.5C35.8 88.7 38.4 86.9 38.4 84.4C38.4 82.4 37 80.4 35.6 78.5C35.5 78.3 35.3 78.1 35.2 77.9H35.3C37.5 77.9 39.3 76.1 39.3 73.9V68.4C45.4 65.8 51.4 60.5 55.1 54C57.4 55.6 59.7 56.9 62.1 57.7V62.4C62.1 64.6 63.9 66.4 66.1 66.4H66.8C67.3 67.3 67.9 68.3 68.7 69.3C69.4 70.3 70.7 72.1 70.8 72.8C70.4 73.5 68.5 74.9 67.4 75.7C65.2 77.3 63.5 78.5 63.5 80.2C63.5 81.9 65.3 84.1 68.8 86.8C69.2 87.1 69.6 87.2 70 87.2C70.6 87.2 71.2 86.9 71.6 86.4C72.3 85.5 72.1 84.3 71.2 83.6C69.8 82.5 68.3 81.1 67.7 80.3C68.2 79.9 69 79.3 69.6 78.9C72.1 77.1 74.7 75.3 74.7 72.8C74.7 70.8 73.3 68.8 71.9 66.9C71.8 66.7 71.6 66.5 71.5 66.3H71.6C73.8 66.3 75.6 64.5 75.6 62.3V56.8C85.6 52.6 95.2 41.2 95.2 28.8C95 13.6 82.7 1.29999 67.5 1.29999ZM31.9 73.8C31.8 73.8 31.8 73.8 31.8 73.8H29.7V70.5H35.2V73.8H31.9ZM68.2 62.3C68.2 62.3 68.1 62.3 68.2 62.3C68.1 62.3 68.1 62.3 68.1 62.3H66V59H71.5V62.3H68.2ZM67.5 54.6C57.8 54.6 45.2 42.1 45.2 28.8C45.2 15.4 54.8 5.29999 67.5 5.29999C80.5 5.29999 91 15.8 91 28.8C91 42.1 77.8 54.6 67.5 54.6Z" fill="#3EC8CA"/>
</g>
<defs>
<clipPath id="clip0">
<rect width="100" height="100" fill="white"/>
</clipPath>
</defs>
</svg>
